#!OML:ASF E:\acrobat2\Project_11_07_03\Capture day 1\Session 1\Acrobat.ASF
:FULLY-SPECIFIED
:DEGREES
586
root 9.53553 9.91129 13.0252 19.742 3.73109 4.29043
lowerback 32.9963 -1.46318 2.0999
upperback 12.463 -1.07168 0.524047
thorax -3.76327 -0.436599 -0.258685
lowerneck 4.9106 -3.88429 -0.486157
upperneck -32.6692 -4.51024 4.74558
head -11.2363 -2.66246 2.33818
rclavicle 5.56597e-015 -6.36111e-015
rhumerus -50.796 3.62361 -26.458
rradius 18.721
rwrist -6.07677
rhand 2.43977 -43.8348
rfingers 7.12502
rthumb 27.9251 -791.778
lclavicle 5.56597e-015 -6.36111e-015
lhumerus -46.875 -35.0861 48.8588
lradius 14.3281
lwrist 13.087
lhand -2.73573 -10.5169
lfingers 7.12502
lthumb 22.9676 18.1349
rfemur -110.039 -26.5417 25.0522
rtibia 41.4772
rfoot -205.818 4.77486
rtoes -8.42223
lfemur -111.214 18.6985 -24.2773
ltibia 52.7377
lfoot -180.968 21.0672
ltoes 29.318
587
root 9.56302 9.7609 12.9846 19.6225 3.58432 4.58023
lowerback 32.9386 -1.41662 2.14862
upperback 12.3982 -1.00348 0.510171
thorax -3.81248 -0.402687 -0.326096
lowerneck 5.07902 -3.90792 -0.516001
upperneck -32.6229 -4.63281 4.46796
head -11.2558 -2.68053 2.25732
rclavicle -1.27222e-014 -3.97569e-016
rhumerus -54.6172 2.17495 -23.8013
rradius 18.4807
rwrist -6.66145
rhand 2.31459 -44.1242
rfingers 7.12502
rthumb 27.8054 -792.087
lclavicle -1.27222e-014 -3.97569e-016
lhumerus -49.4626 -31.8903 48.3145
lradius 13.6139
lwrist 10.8477
lhand -3.03785 -11.1262
lfingers 7.12502
lthumb 22.6776 17.5613
rfemur -110.541 -26.3661 25.2801
rtibia 40.4721
rfoot -205.952 5.30778
rtoes -9.66806
lfemur -111.341 18.2159 -24.1825
ltibia 51.3306
lfoot -181.485 21.2024
ltoes 29.7538
588
root 9.59548 9.59982 12.941 19.5168 3.49335 4.83915
lowerback 32.8265 -1.41137 2.31303
upperback 12.3115 -0.953561 0.497761
thorax -3.86421 -0.374787 -0.452718
lowerneck 5.17346 -3.92312 -0.523229
upperneck -32.48 -4.7503 4.15103
head -11.2249 -2.69386 2.15179
rclavicle -1.59028e-015 -9.93923e-015
rhumerus -58.5628 1.35919 -21.3443
rradius 18.4631
rwrist -7.65461
rhand 2.28709 -44.357
rfingers 7.12502
rthumb 27.7791 -792.324
lclavicle -1.59028e-015 -9.93923e-015
lhumerus -52.1303 -28.9988 47.6676
lradius 13.0768
lwrist 8.96856
lhand -3.57017 -11.8258
lfingers 7.12502
lthumb 22.1667 16.9233
rfemur -111.102 -26.267 25.5748
rtibia 39.562
rfoot -206.728 5.96132
rtoes -10.8781
lfemur -111.493 17.6287 -24.0925
ltibia 49.9051
lfoot -182.265 21.4167
ltoes 29.7218
589
root 9.63363 9.42927 12.8949 19.3978 3.51751 5.09813
lowerback 32.69 -1.48412 2.61382
upperback 12.2142 -0.9599 0.481361
thorax -3.91951 -0.370106 -0.643134
lowerneck 5.17971 -3.93146 -0.49781
upperneck -32.2628 -4.86272 3.7942
head -11.1503 -2.70418 2.02059
rclavicle 6.36111e-015 8.34896e-015
rhumerus -62.5624 1.14841 -19.2452
rradius 18.6405
rwrist -9.0982
rhand 2.39645 -44.5262
rfingers 7.12502
rthumb 27.8837 -792.477
lclavicle 6.36111e-015 8.34896e-015
lhumerus -54.9201 -26.4436 46.9953
lradius 12.7316
lwrist 7.55875
lhand -4.21595 -12.5713
lfingers 7.12502
lthumb 21.5466 16.2502
rfemur -111.715 -26.3347 25.919
rtibia 38.6604
rfoot -208.166 6.66277
rtoes -12.1148
lfemur -111.636 16.8639 -24.0082
ltibia 48.4868
lfoot -183.304 21.779
ltoes 29.6058
590
root 9.67674 9.2497 12.8468 19.2527 3.66548 5.38134
lowerback 32.5386 -1.6371 3.02378
upperback 12.115 -1.0336 0.456072
thorax -3.97311 -0.394517 -0.883276
lowerneck 5.10061 -3.93446 -0.433566
upperneck -32.0009 -4.96953 3.40169
head -11.0448 -2.71288 1.86589
rclavicle 7.15625e-015 -6.36111e-015
rhumerus -66.5311 1.38521 -17.5221
rradius 18.9351
rwrist -10.8435
rhand 2.65093 -44.6155
rfingers 7.12502
rthumb 28.1269 -792.526
lclavicle 7.15625e-015 -6.36111e-015
lhumerus -57.8245 -24.2067 46.3065
lradius 12.5741
lwrist 6.65328
lhand -4.84748 -13.3218
lfingers 7.12502
lthumb 20.94 15.5679
rfemur -112.404 -26.5822 26.2865
rtibia 37.6801
rfoot -210.09 7.43513
rtoes -13.4602
lfemur -111.793 15.9145 -23.9575
ltibia 47.0824
lfoot -184.584 22.3048
ltoes 29.7051
591
root 9.72305 9.06059 12.7979 19.0829 3.90557 5.7046
lowerback 32.3615 -1.84682 3.48153
upperback 12.017 -1.16536 0.416908
thorax -4.01732 -0.445123 -1.14674
lowerneck 4.95247 -3.9321 -0.332283
upperneck -31.718 -5.06598 2.98997
head -10.9209 -2.71973 1.69524
rclavicle -1.35174e-014 -3.18055e-015
rhumerus -70.3901 1.89547 -16.1058
rradius 19.2513
rwrist -12.6435
rhand 3.03204 -44.6158
rfingers 7.12502
rthumb 28.4912 -792.466
lclavicle -1.35174e-014 -3.18055e-015
lhumerus -60.8515 -22.2969 45.6455
lradius 12.5942
lwrist 6.2989
lhand -5.39086 -14.0105
lfingers 7.12502
lthumb 20.4178 14.936
rfemur -113.219 -26.9635 26.6396
rtibia 36.5586
rfoot -212.212 8.21484
rtoes -14.7595
lfemur -112.016 14.8256 -23.9756
ltibia 45.7011
lfoot -186.097 22.9525
ltoes 30.0193
592
root 9.76989 8.86058 12.7492 18.9001 4.17513 6.06526
lowerback 32.1272 -2.06597 3.90171
upperback 11.9264 -1.32434 0.367873
thorax -4.03039 -0.509326 -1.39113
lowerneck 4.75381 -3.92052 -0.236152
upperneck -31.4277 -5.13745 2.61235
head -10.7845 -2.71934 1.53484
rclavicle -1.03368e-014 7.95139e-015
rhumerus -74.0656 2.54208 -14.8966
rradius 19.5013
rwrist -14.278
rhand 3.50382 -44.519
rfingers 7.12502
rthumb 28.9419 -792.293
lclavicle -1.03368e-014 7.95139e-015
lhumerus -63.9483 -20.6457 44.9662
lradius 12.7435
lwrist 6.36538
lhand -5.81203 -14.6093
lfingers 7.12502
lthumb 20.013 14.3801
rfemur -114.218 -27.3775 26.9455
rtibia 35.2677
rfoot -214.212 8.9668
rtoes -15.9682
lfemur -112.366 13.6868 -24.077
ltibia 44.3491
lfoot -187.77 23.6551
ltoes 30.4825
593
root 9.81467 8.64845 12.7015 18.7168 4.41434 6.42983
lowerback 31.8101 -2.24772 4.22804
upperback 11.848 -1.47104 0.320954
thorax -3.99268 -0.569734 -1.585
lowerneck 4.53108 -3.89933 -0.167791
upperneck -31.1519 -5.17824 2.30061
head -10.6473 -2.70992 1.40068
rclavicle 1.51076e-014 1.11319e-014
rhumerus -77.4978 3.22881 -13.7739
rradius 19.6171
rwrist -15.5564
rhand 4.05734 -44.3217
rfingers 7.12502
rthumb 29.4704 -792.004
lclavicle 1.51076e-014 1.11319e-014
lhumerus -67.0576 -19.1972 44.2198
lradius 12.9636
lwrist 6.66686
lhand -6.11102 -15.134
lfingers 7.12502
lthumb 19.7256 13.8851
rfemur -115.439 -27.705 27.1969
rtibia 33.8136
rfoot -215.877 9.67858
rtoes -17.1296
lfemur -112.906 12.5989 -24.249
ltibia 42.9968
lfoot -189.478 24.3248
ltoes 31.06
594
root 9.85561 8.42368 12.6556 18.5279 4.5833 6.75299
lowerback 31.4145 -2.36181 4.43678
upperback 11.784 -1.57434 0.290307
thorax -3.9001 -0.612308 -1.70977
lowerneck 4.30549 -3.8714 -0.130125
upperneck -30.9059 -5.19073 2.06554
head -10.5185 -2.69321 1.29808
rclavicle -9.54166e-015 -9.54166e-015
rhumerus -80.6517 3.92609 -12.6768
rradius 19.5744
rwrist -16.4021
rhand 4.70303 -44.0327
rfingers 7.12502
rthumb 30.0867 -791.604
lclavicle -9.54166e-015 -9.54166e-015
lhumerus -70.1725 -17.9588 43.4789
lradius 13.2055
lwrist 7.11063
lhand -6.36338 -15.5819
lfingers 7.12502
lthumb 19.483 13.4619
rfemur -116.878 -27.8638 27.3877
rtibia 32.2222
rfoot -217.089 10.3351
rtoes -18.0285
lfemur -113.673 11.6518 -24.4589
ltibia 41.603
lfoot -191.129 24.8809
ltoes 31.5972
595
root 9.8917 8.18749 12.6123 18.2939 4.67541 6.98996
lowerback 30.9868 -2.40255 4.53722
upperback 11.7441 -1.62011 0.292534
thorax -3.75955 -0.630264 -1.75638
lowerneck 4.07932 -3.83789 -0.12998
upperneck -30.6864 -5.17584 1.91537
head -10.3965 -2.66961 1.23082
rclavicle 1.74931e-014 -2.06736e-014
rhumerus -83.5099 4.60615 -11.5529
rradius 19.3758
rwrist -16.7835
rhand 5.44962 -43.6681
rfingers 7.12502
rthumb 30.7987 -791.108
lclavicle 1.74931e-014 -2.06736e-014
lhumerus -73.2673 -16.9095 42.8054
lradius 13.4176
lwrist 7.58533
lhand -6.61029 -15.9697
lfingers 7.12502
lthumb 19.2456 13.098
rfemur -118.469 -27.8366 27.51
rtibia 30.5319
rfoot -217.872 10.8719
rtoes -18.6394
lfemur -114.635 10.8985 -24.6588
ltibia 40.1314
lfoot -192.689 25.2488
ltoes 31.8808
596
root 9.92296 7.94306 12.5721 17.9476 4.71708 7.09888
lowerback 30.6126 -2.39199 4.58455
upperback 11.7408 -1.61331 0.339823
thorax -3.59502 -0.624797 -1.73968
lowerneck 3.84954 -3.8024 -0.162998
upperneck -30.4876 -5.14142 1.84054
head -10.2789 -2.64204 1.19499
rclavicle 3.97569e-015 -3.57812e-014
rhumerus -86.0686 5.23466 -10.3303
rradius 19.0366
rwrist -16.6806
rhand 6.28376 -43.2652
rfingers 7.12502
rthumb 31.5937 -790.552
lclavicle 3.97569e-015 -3.57812e-014
lhumerus -76.3095 -16.0181 42.2516
lradius 13.5599
lwrist 7.99732
lhand -6.85223 -16.3172
lfingers 7.12502
lthumb 19.0129 12.7735
rfemur -120.082 -27.6708 27.5592
rtibia 28.7861
rfoot -218.289 11.229
rtoes -18.9815
lfemur -115.712 10.3458 -24.795
ltibia 38.5508
lfoot -194.145 25.3763
ltoes 31.8105
